<svg xmlns="http://www.w3.org/2000/svg" xmlns:xlink="http://www.w3.org/1999/xlink" width="2000" zoomAndPan="magnify" viewBox="0 0 1500 1499.999933" height="2000" preserveAspectRatio="xMidYMid meet" version="1.0"><defs><g/><clipPath id="cd7b4cefef"><path d="M 126.539062 53.394531 L 1373.789062 53.394531 L 1373.789062 1446.894531 L 126.539062 1446.894531 Z M 126.539062 53.394531 " clip-rule="nonzero"/></clipPath><clipPath id="c0ed3e9f4f"><path d="M 146.515625 75.714844 L 1353.265625 75.714844 L 1353.265625 1424.214844 L 146.515625 1424.214844 Z M 146.515625 75.714844 " clip-rule="nonzero"/></clipPath><clipPath id="90ba769a60"><path d="M 0.480469 0.238281 L 637 0.238281 L 637 1044 L 0.480469 1044 Z M 0.480469 0.238281 " clip-rule="nonzero"/></clipPath><clipPath id="87bdd799cb"><rect x="0" width="637" y="0" height="1044"/></clipPath><clipPath id="28b9c64869"><path d="M 171 286 L 719.039062 286 L 719.039062 1251.601562 L 171 1251.601562 Z M 171 286 " clip-rule="nonzero"/></clipPath><clipPath id="2c557449bf"><rect x="0" width="549" y="0" height="966"/></clipPath><clipPath id="0acb7a30f6"><rect x="0" width="720" y="0" height="1252"/></clipPath></defs><rect x="-150" width="1800" fill="#ffffff" y="-149.999993" height="1799.99992" fill-opacity="1"/><rect x="-150" width="1800" fill="#f3f1ec" y="-149.999993" height="1799.99992" fill-opacity="1"/><g clip-path="url(#cd7b4cefef)"><path fill="#c59d4d" d="M 1373.199219 266.210938 L 1373.199219 507.851562 C 1373.199219 882.390625 1166.175781 1226.25 835.167969 1401.476562 L 749.917969 1446.601562 L 664.671875 1401.460938 C 333.675781 1226.234375 126.636719 882.375 126.636719 507.835938 L 126.636719 266.210938 L 157.207031 258.808594 C 273.601562 230.625 373.625 156.539062 434.527344 53.410156 L 1065.277344 53.410156 C 1126.179688 156.539062 1226.203125 230.640625 1342.597656 258.808594 Z M 1373.199219 266.210938 " fill-opacity="1" fill-rule="nonzero"/></g><g clip-path="url(#c0ed3e9f4f)"><path fill="#6b0f1a" d="M 1353.226562 281.714844 L 1353.226562 515.609375 C 1353.226562 878.148438 1152.839844 1210.988281 832.4375 1380.597656 L 749.917969 1424.273438 L 667.402344 1380.582031 C 347.015625 1210.972656 146.613281 878.132812 146.613281 515.59375 L 146.613281 281.714844 L 176.203125 274.546875 C 288.867188 247.269531 385.683594 175.554688 444.636719 75.730469 L 1055.171875 75.730469 C 1114.121094 175.554688 1210.941406 247.285156 1323.605469 274.546875 Z M 1353.226562 281.714844 " fill-opacity="1" fill-rule="nonzero"/></g><g transform="matrix(1, 0, 0, 1, 396, 72)"><g clip-path="url(#0acb7a30f6)"><g clip-path="url(#90ba769a60)"><g transform="matrix(1, 0, 0, 1, 0, 0.000000000000113687)"><g clip-path="url(#87bdd799cb)"><g fill="#f3f1ec" fill-opacity="1"><g transform="translate(1.777637, 794.406526)"><g><path d="M 622.328125 -537.96875 C 623.472656 -537.96875 624.046875 -536.242188 624.046875 -532.796875 C 624.046875 -529.359375 623.472656 -527.640625 622.328125 -527.640625 C 599.367188 -527.640625 581.289062 -518.601562 568.09375 -500.53125 C 554.894531 -482.457031 548.296875 -458.21875 548.296875 -427.8125 L 548.296875 12.90625 C 548.296875 14.632812 547.003906 15.785156 544.421875 16.359375 C 541.847656 16.929688 539.984375 16.644531 538.828125 15.5 L 135.140625 -444.15625 L 135.140625 -109.3125 C 135.140625 -78.90625 141.453125 -54.804688 154.078125 -37.015625 C 166.703125 -19.222656 184.207031 -10.328125 206.59375 -10.328125 C 207.738281 -10.328125 208.3125 -8.601562 208.3125 -5.15625 C 208.3125 -1.71875 207.738281 0 206.59375 0 C 190.519531 0 178.179688 -0.285156 169.578125 -0.859375 L 123.09375 -1.71875 L 69.71875 -0.859375 C 59.96875 -0.285156 45.910156 0 27.546875 0 C 25.828125 0 24.96875 -1.71875 24.96875 -5.15625 C 24.96875 -8.601562 25.828125 -10.328125 27.546875 -10.328125 C 52.796875 -10.328125 72.734375 -19.222656 87.359375 -37.015625 C 101.992188 -54.804688 109.3125 -78.90625 109.3125 -109.3125 L 109.3125 -473.421875 C 90.375 -494.085938 74.160156 -508.289062 60.671875 -516.03125 C 47.191406 -523.769531 33.28125 -527.640625 18.9375 -527.640625 C 17.789062 -527.640625 17.21875 -529.359375 17.21875 -532.796875 C 17.21875 -536.242188 17.789062 -537.96875 18.9375 -537.96875 L 55.09375 -537.109375 C 62.550781 -536.535156 73.453125 -536.25 87.796875 -536.25 L 153.21875 -537.109375 C 161.25 -537.679688 171.003906 -537.96875 182.484375 -537.96875 C 187.078125 -537.96875 190.519531 -536.820312 192.8125 -534.53125 C 195.113281 -532.238281 199.128906 -527.359375 204.859375 -519.890625 C 214.617188 -506.703125 221.507812 -497.816406 225.53125 -493.234375 L 523.34375 -149.78125 L 523.34375 -427.8125 C 523.34375 -458.800781 517.03125 -483.1875 504.40625 -500.96875 C 491.789062 -518.75 474.289062 -527.640625 451.90625 -527.640625 C 450.757812 -527.640625 450.1875 -529.359375 450.1875 -532.796875 C 450.1875 -536.242188 450.757812 -537.96875 451.90625 -537.96875 L 488.921875 -537.109375 C 507.273438 -535.960938 522.765625 -535.390625 535.390625 -535.390625 C 546.867188 -535.390625 562.9375 -535.960938 583.59375 -537.109375 Z M 622.328125 -537.96875 "/></g></g></g></g></g></g><g clip-path="url(#28b9c64869)"><g transform="matrix(1, 0, 0, 1, 171, 286)"><g clip-path="url(#2c557449bf)"><g fill="#f3f1ec" fill-opacity="1"><g transform="translate(2.724128, 735.503305)"><g><path d="M 340.25 -506.78125 C 365.21875 -506.78125 390.582031 -504.785156 416.34375 -500.796875 C 442.101562 -496.816406 462.6875 -491.640625 478.09375 -485.265625 C 482.875 -483.671875 485.925781 -481.675781 487.25 -479.28125 C 488.582031 -476.894531 489.515625 -472.78125 490.046875 -466.9375 L 500.40625 -356.1875 C 500.40625 -354.59375 499.078125 -353.53125 496.421875 -353 C 493.765625 -352.46875 491.90625 -353.265625 490.84375 -355.390625 C 475.96875 -398.941406 454.71875 -432.269531 427.09375 -455.375 C 399.476562 -478.488281 366.28125 -490.046875 327.5 -490.046875 C 291.375 -490.046875 259.097656 -480.347656 230.671875 -460.953125 C 202.253906 -441.566406 179.941406 -413.8125 163.734375 -377.6875 C 147.535156 -341.570312 139.4375 -299.34375 139.4375 -251 C 139.4375 -202.125 147.800781 -159.226562 164.53125 -122.3125 C 181.269531 -85.394531 204.378906 -56.972656 233.859375 -37.046875 C 263.347656 -17.128906 297.21875 -7.171875 335.46875 -7.171875 C 372.125 -7.171875 402.929688 -17.128906 427.890625 -37.046875 C 452.859375 -56.972656 476.5 -89.773438 498.8125 -135.453125 C 499.34375 -137.046875 500.9375 -137.578125 503.59375 -137.046875 C 506.25 -136.515625 507.578125 -135.453125 507.578125 -133.859375 L 495.625 -35.0625 C 494.5625 -28.6875 493.5 -24.566406 492.4375 -22.703125 C 491.375 -20.847656 488.453125 -18.859375 483.671875 -16.734375 C 434.796875 0.796875 385.394531 9.5625 335.46875 9.5625 C 278.625 9.5625 227.757812 -1.191406 182.875 -22.703125 C 137.988281 -44.222656 102.796875 -74.367188 77.296875 -113.140625 C 51.796875 -151.921875 39.046875 -196.015625 39.046875 -245.421875 C 39.046875 -295.890625 52.191406 -340.910156 78.484375 -380.484375 C 104.785156 -420.054688 140.910156 -451 186.859375 -473.3125 C 232.804688 -495.625 283.9375 -506.78125 340.25 -506.78125 Z M 340.25 -506.78125 "/></g></g></g></g></g></g></g></g></svg>